<?xml version="1.0" encoding="UTF-8"?>
<svg width="202px" height="45px" viewBox="0 0 202 45" version="1.1" xmlns="http://www.w3.org/2000/svg" xmlns:xlink="http://www.w3.org/1999/xlink">
    <!-- Generator: Sketch 57.1 (83088) - https://sketch.com -->
    <title>分组</title>
    <desc>Created with Sketch.</desc>
    <defs>
        <polygon id="path-1" points="0 0.438419094 11.7801204 0.438419094 11.7801204 8.63941103 0 8.63941103"></polygon>
        <polygon id="path-3" points="0.453713707 0.267636555 9.2782032 0.267636555 9.2782032 14.9148151 0.453713707 14.9148151"></polygon>
    </defs>
    <g id="Page-1" stroke="none" stroke-width="1" fill="none" fill-rule="evenodd">
        <g id="画板" transform="translate(-1559.000000, -309.000000)">
            <g id="分组" transform="translate(1559.000000, 309.000000)">
                <path d="M51.3319013,26.9293607 L51.3319013,26.9293607 C50.6669727,25.2308087 51.4707182,23.1898609 53.1569736,22.2945485 L56.5090318,20.5139941 C58.3106054,19.5572998 60.4111357,20.2742211 61.1213212,22.0888232 L61.2449074,22.4043645 C61.9550929,24.2189666 60.9868559,26.3946669 59.1191376,27.1816019 L55.6434932,28.6470945 C53.8950095,29.3836772 51.9963947,28.6274332 51.3319013,26.9293607" id="Fill-1" fill="#00D7F1"></path>
                <g transform="translate(0.000000, 29.732143)">
                    <mask id="mask-2" fill="white">
                        <use xlink:href="#path-1"></use>
                    </mask>
                    <g id="Clip-4"></g>
                    <path d="M11.6803816,6.10304062 L11.6803816,6.10304062 C12.1447953,4.30468795 10.9453926,2.41750045 8.95599868,1.81775491 L5.00116337,0.624451339 C2.87559464,-0.016396875 0.683047431,1.05448259 0.186253404,2.9761433 L0.100201581,3.3102683 C-0.396592446,5.23104509 1.00463285,7.22386205 3.17633245,7.68527277 L7.21766315,8.54400937 C9.25052657,8.97625045 11.2155244,7.90095134 11.6803816,6.10304062" id="Fill-3" fill="#FF4900" mask="url(#mask-2)"></path>
                </g>
                <path d="M43.2947962,15.7233156 L43.2947962,15.7233156 C41.7793462,14.9772321 41.1071996,13.2636327 41.7766719,11.8515119 L44.7202106,5.63965972 C45.4204377,4.16271888 47.3125216,3.58586363 48.897504,4.36587981 L49.32183,4.57469619 C50.9072581,5.3551474 51.5562273,7.18272575 50.7552674,8.61050773 L47.3874026,14.6131085 C46.6216546,15.9782456 44.8102462,16.4693991 43.2947962,15.7233156" id="Fill-5" fill="#00BB6D"></path>
                <g transform="translate(20.758893, 0.000000)">
                    <mask id="mask-4" fill="white">
                        <use xlink:href="#path-3"></use>
                    </mask>
                    <g id="Clip-8"></g>
                    <path d="M6.50182225,14.8360462 L6.50182225,14.8360462 C4.70515144,15.1988824 2.98147894,14.2747279 2.61648741,12.7528818 L0.522348504,4.01607511 C0.14412603,2.43899527 1.36821637,0.828685399 3.23058566,0.452377626 L3.75480474,0.345951681 C5.61763027,-0.0294579832 7.38647047,0.97642437 7.67025138,2.57281355 L9.23971496,11.4155972 C9.51345861,12.9558545 8.29849305,14.4732101 6.50182225,14.8360462" id="Fill-7" fill="#FFDA08" mask="url(#mask-4)"></path>
                </g>
                <path d="M15.4577519,22.4864581 L15.4577519,22.4864581 C14.5716407,24.0151965 12.8252963,24.554859 11.5138685,23.7050509 L6.11330676,20.2054907 C4.74386221,19.3181169 4.37614486,17.2634596 5.30107296,15.6664617 L5.52437465,15.2811848 C6.44930276,13.6851031 8.30082852,13.1793413 9.61392591,14.1642941 L14.791186,18.0491312 C16.0483536,18.9928534 16.3438631,20.9577197 15.4577519,22.4864581" id="Fill-9" fill="#FF7E00"></path>
                <path d="M20.9201982,44.9505033 C28.4873529,43.4842124 39.9120863,41.2359908 48.1273757,39.6155934 C49.2502964,39.3940084 50.1161357,38.4716494 50.2360768,37.3249698 C50.3410819,36.3200863 50.3193567,35.1952916 50.157323,33.934172 C48.9149138,24.2537338 40.2872984,17.3987325 30.8875336,18.6238332 C21.4877687,19.8480219 14.8756172,28.6886256 16.118479,38.3686078 C16.4570298,41.005743 17.3165326,42.8983343 18.5770461,44.2328597 C19.175394,44.8656992 20.0683898,45.1155522 20.9201982,44.9505033" id="Fill-11" fill="#FFBF36"></path>
                <polygon id="Fill-13" fill="#FFFFFF" points="30.4654113 40.7405523 30.4499985 39.6451708 36.663481 39.5537432 36.5590168 32.1428571 29.541502 32.2456585 29.7097579 44.1964286 36.7272727 44.0931897 36.6788938 40.6491247"></polygon>
                <polygon id="Fill-15" fill="#FFFFFF" points="41.5177866 27.3214286 37.5134384 27.3946626 36.7272727 30.5357143 40.7316209 30.4624803"></polygon>
                <polygon id="Fill-17" fill="#FFFFFF" points="24.7509881 36.2346457 28.6970061 36.1607143 29.541502 39.3016461 25.595484 39.375"></polygon>
                <path d="M150.930427,24.8929729 L155.617104,24.8929729 C156.649585,24.9819102 157.175558,24.4957505 157.199548,23.4349549 L157.512777,20.3871257 L151.393934,20.3871257 L150.930427,24.8929729 Z M159.20793,39.3395173 L159.554202,35.5253531 L160.687171,35.5253531 C161.901615,35.5253531 162.486884,34.6751497 162.519927,33.5254168 L164.583079,13.3491011 L149.042448,13.3606214 L149.292307,10.4464286 L170.063241,10.4464286 L167.543371,34.6332156 C167.03822,37.7861105 165.157937,39.195743 161.551268,39.3395173 L159.20793,39.3395173 Z M153.126203,17.4710896 L156.250806,17.4710896 L153.126203,17.4710896 Z M160.02631,17.4710896 L161.979017,17.4710896 L161.310914,23.9648919 C161.13212,26.5293263 159.95434,27.8546297 157.777122,27.9412629 L157.44126,31.0075247 C157.368837,31.715797 157.677993,32.0673987 158.373707,32.0673987 L158.63443,32.0673987 C159.240067,32.0673987 159.577287,31.7591136 159.64111,31.1402393 L159.722586,30.344873 L162.196286,30.344873 L162.046461,31.8024302 C161.895278,34.1014353 160.74013,35.2050868 158.581018,35.1161495 L156.75822,35.1161495 C154.318015,35.2050868 153.273765,33.9687206 153.625017,31.4052078 L154.001617,27.9412629 L152.569904,27.9412629 C152.260295,32.6259063 149.042448,34.8281403 144.154797,36.1866223 L144.496543,32.7351194 C147.15809,31.322722 148.494296,30.8568382 148.794399,27.9412629 L146.320699,27.9412629 L147.397992,17.4710896 L149.350699,17.4710896 L160.02631,17.4710896 Z M138.126482,39.3653229 L140.577098,16.7328642 L145.72004,16.7328642 L143.261277,39.375 L138.126482,39.3653229 Z" id="Fill-19" fill="#00A461"></path>
                <path d="M188.72856,24.734389 C186.433438,23.9015139 184.704569,23.5224373 182.478656,22.8781893 L182.74785,20.2506235 C185.100047,20.7057888 186.941268,21.2206404 189.0391,21.7509832 L188.72856,24.734389 Z M188.063887,28.8673264 C185.448787,28.1219306 183.785082,27.6941025 181.561416,27.0398309 L181.832858,24.4414247 C184.452002,24.9936373 186.209633,25.4633825 188.358248,26.022885 L188.063887,28.8673264 Z M179.823559,32.3131874 L180.134998,29.299255 L189.829158,29.299255 C190.10015,28.3388061 190.304181,27.2024875 190.439902,25.8921218 L190.99492,20.5189842 L195.389671,20.5189842 L194.995092,24.468762 C194.817127,26.3864705 194.61759,27.9888892 194.223909,29.299255 L200.945242,29.299255 L200.633802,32.3131874 L194.946556,32.3131874 C195.649878,34.6719369 197.383241,35.6241847 200.12777,36.5846336 L199.825319,40.1785714 C195.806721,39.0422528 193.084213,36.98558 191.614203,34.5407181 C189.750511,36.7231423 185.71169,38.731975 179.536387,40.1307312 L179.874791,36.7258761 C184.300102,35.5918356 187.094516,34.4978898 188.354204,32.3131874 L179.823559,32.3131874 Z M182.569885,14.491575 L182.815711,11.6079502 L190.235422,11.6079502 L190.438554,9.64285714 L194.832856,9.64285714 L194.629724,11.6079502 L201.738894,11.6079502 L201.441387,14.491575 L194.332217,14.491575 L194.115602,16.5878869 L202,16.5878869 L201.255332,23.7948986 L197.506828,23.7948986 L197.953539,19.4706005 L180.940785,19.4706005 L181.189756,16.5878869 L189.720851,16.5878869 L189.937465,14.491575 L182.569885,14.491575 Z M175.50251,16.5878869 C175.268818,14.6674447 174.884125,13.0509016 174.027556,10.5162825 L178.392197,10.5080813 C179.303145,12.5187364 179.687388,14.1352794 179.867151,16.5801413 L175.50251,16.5878869 Z M179.397071,32.1113474 L178.929688,36.597391 C176.899716,37.3318519 175.293985,37.7150291 173.201545,38.3811469 C172.558444,38.5861763 171.955339,38.1136974 172.024998,37.4475796 L173.844197,21.6894744 L171.660079,21.6894744 L171.911747,18.8158732 L179.157088,18.8158732 L177.484844,32.8890923 L179.397071,32.1113474 Z" id="Fill-21" fill="#00A461"></path>
                <polygon id="Fill-23" fill="#00A461" points="145.708438 15.2678571 140.521739 15.2620859 140.923973 10.4464286 146.110672 10.4517189"></polygon>
                <polygon id="Fill-25" fill="#00A461" points="153.296443 16.0714286 149.473759 16.0714286 149.304348 17.6785714 153.126576 17.6785714"></polygon>
                <polygon id="Fill-27" fill="#00A461" points="160.482213 16.0714286 156.659966 16.0714286 156.490119 17.6785714 160.312366 17.6785714"></polygon>
                <path d="M87.4561317,40.0920399 L87.7945706,36.1971954 C87.7945706,36.1971954 89.8739393,36.2212576 90.5688672,36.1971954 C91.6396879,36.1601765 91.9447342,35.762224 92.1112462,34.5031208 L93.5832298,17.2231897 L92.5173729,17.2213387 C90.9537851,19.6553274 88.425872,21.4794306 84.9349873,22.6950368 L85.272975,19.005184 C88.0400516,17.2056057 89.5395616,14.8766581 90.6794239,10.4464286 L95.5082704,10.4464286 C95.1436589,11.7494917 94.7456547,12.9211379 94.3196729,13.9641437 L102.197628,13.9641437 L101.92056,17.2213387 L98.7130613,17.2213387 L96.9256526,35.5951765 C96.7645557,38.4622855 95.1720878,40.175795 92.2150341,40.0906517 L87.4561317,40.0920399 Z M71.8577075,22.5650081 L72.1361299,18.9505812 C75.7781839,16.8460603 76.9451213,15.0520348 78.0994237,10.4464286 L83.055072,10.4464286 C82.6976805,11.6624974 82.3073476,12.7480749 81.8881346,13.7036236 L86.8442341,13.7036236 L86.5671654,16.9612814 L82.6873017,16.9839554 L80.7126234,40.1785714 L75.5701568,40.1558974 L77.2785965,20.0884478 C75.8260166,21.2189106 74.0187528,22.0425797 71.8577075,22.5650081 L71.8577075,22.5650081 Z" id="Fill-29" fill="#00A461"></path>
                <path d="M104.592885,26.4134557 L104.877813,23.04385 L117.559987,23.04385 L117.844915,19.6737841 C120.458311,18.4646659 122.902713,16.7796329 125.178566,14.6191454 L107.975898,14.6191454 L108.260826,11.25 L132.997353,11.25 L132.712425,14.6191454 C129.555035,17.2978922 126.283496,19.37231 122.894241,20.8410181 L122.708302,23.04385 L134.134387,23.04385 L133.84946,26.4134557 L122.423375,26.4134557 L121.77638,34.0603112 C121.476738,37.6034371 119.651239,39.375 116.304344,39.375 L111.168068,39.375 L111.480641,35.5870127 C111.480641,35.5870127 113.822933,35.6413241 114.607264,35.5870127 C115.995338,35.4898967 116.529967,34.917326 116.65571,33.6414693 L117.275059,26.4134557 L104.592885,26.4134557 Z" id="Fill-31" fill="#00A461"></path>
            </g>
        </g>
    </g>
</svg>